<svg width="20" height="20" viewBox="0 0 20 20" fill="none" xmlns="http://www.w3.org/2000/svg">
<g id="Icon">
<g id="Shape">
<path fill-rule="evenodd" clip-rule="evenodd" d="M5.20325 13.0605C5.20325 12.2272 5.20283 12.2272 5.20283 12.2272L5.2014 12.2272L5.1991 12.2272L5.19319 12.2273L5.17621 12.2275C5.16267 12.2277 5.1447 12.2281 5.12274 12.2289C5.07891 12.2304 5.01877 12.2333 4.94599 12.2389C4.80157 12.25 4.60148 12.2721 4.37691 12.3171C3.95971 12.4005 3.31798 12.5888 2.84623 13.0605C2.49765 13.4091 2.3763 13.9231 2.31886 14.2678C2.25283 14.664 2.23387 15.1022 2.23387 15.4912C2.23387 15.8854 2.2535 16.2562 2.27281 16.5266C2.28252 16.6624 2.29225 16.7745 2.29965 16.8534C2.30336 16.8929 2.30648 16.9242 2.30874 16.9461L2.31144 16.9719L2.31223 16.9792L2.31259 16.9825C2.31259 16.9825 2.31262 16.9827 3.14086 16.8907L2.31259 16.9825C2.35564 17.3699 2.66146 17.6759 3.04883 17.7189L3.14086 16.8907C3.04883 17.7189 3.04883 17.7189 3.04883 17.7189L3.05011 17.7191L3.05236 17.7193L3.0597 17.7201L3.08545 17.7228C3.10737 17.7251 3.13866 17.7282 3.17816 17.7319C3.25709 17.7393 3.36917 17.7491 3.50501 17.7588C3.77537 17.7781 4.14614 17.7977 4.54034 17.7977C4.92932 17.7977 5.36758 17.7787 5.76378 17.7127C6.10843 17.6553 6.62244 17.5339 6.97102 17.1853C7.44276 16.7136 7.63107 16.0719 7.71451 15.6547C7.75943 15.4301 7.78158 15.23 7.79269 15.0856C7.79829 15.0128 7.80119 14.9527 7.8027 14.9088C7.80346 14.8869 7.80387 14.8689 7.8041 14.8554L7.80431 14.8384L7.80434 14.8325L7.80435 14.8302L7.80435 14.8292C7.80435 14.8292 6.41319 14.8283 7.80435 14.8283C7.80435 14.3681 7.43126 13.995 6.97102 13.995C6.51091 13.995 6.1379 14.3679 6.13768 14.8279L6.13769 14.8269L6.13769 14.8259L6.13768 14.8279C6.13762 14.8319 6.13742 14.84 6.13703 14.8514C6.13624 14.8743 6.13454 14.9108 6.13093 14.9578C6.12363 15.0527 6.10895 15.1841 6.08021 15.3278C6.01987 15.6295 5.92164 15.8623 5.81189 15.9862C5.80242 15.9876 5.71813 16.0307 5.48978 16.0687C5.22306 16.1132 4.88793 16.131 4.54034 16.131C4.32098 16.131 4.10712 16.124 3.91727 16.1143C3.90759 15.9244 3.90053 15.7106 3.90053 15.4912C3.90053 15.1436 3.9184 14.8085 3.96285 14.5418C4.00091 14.3134 4.04399 14.2292 4.04536 14.2197C4.16926 14.1099 4.40205 14.0117 4.70377 13.9514C4.84748 13.9226 4.97885 13.9079 5.07382 13.9006C5.12073 13.897 5.15726 13.8953 5.18018 13.8945C5.1916 13.8941 5.19952 13.894 5.20353 13.8939M5.20613 13.8939C5.66505 13.8923 6.03658 13.5198 6.03658 13.0605C6.03658 12.6003 5.66307 12.2272 5.20283 12.2272L5.20325 13.0605" fill="white"/>
<path fill-rule="evenodd" clip-rule="evenodd" d="M16.4819 2.80286C16.8765 2.84235 17.1887 3.1545 17.2281 3.54913C17.5443 6.71132 16.597 9.42992 15.1021 11.3293C14.7408 11.7884 14.3423 12.205 13.9172 12.5697C14.4433 13.5111 14.5632 14.6153 14.1208 15.6476C13.524 17.0402 12.0218 18.0352 9.78972 18.354C9.55057 18.3881 9.30837 18.3168 9.12588 18.1585C8.94339 18.0002 8.83857 17.7705 8.83858 17.5289C8.8387 15.8588 9.09126 14.9021 9.2502 14.3L9.25045 14.299C9.26697 14.2365 9.28252 14.1776 9.29662 14.1222C9.19929 14.0808 9.11002 14.0208 9.03408 13.9449L6.08734 10.9981C6.00475 10.9156 5.94108 10.8172 5.8995 10.7098C5.84038 10.7248 5.77731 10.7415 5.70977 10.7593C5.10768 10.9182 4.15073 11.1709 2.48061 11.171C2.24377 11.171 2.0181 11.0702 1.86002 10.8939C1.70193 10.7175 1.62636 10.4822 1.65219 10.2468C1.90277 7.96285 2.85419 6.40316 4.26971 5.79653C5.34281 5.33665 6.49472 5.50543 7.47667 6.09699C7.83768 5.67834 8.24909 5.28569 8.70182 4.92921C10.6009 3.4339 13.3194 2.48638 16.4819 2.80286ZM12.5344 13.5189C12.0383 13.7815 11.5246 13.975 11.0059 14.0882C10.9848 14.2356 10.9525 14.371 10.9226 14.4906C10.9047 14.5622 10.885 14.6366 10.8643 14.7151C10.7537 15.1345 10.6128 15.6683 10.5451 16.4935C11.7584 16.1367 12.3577 15.5305 12.5889 14.9911C12.7806 14.5437 12.7721 14.0223 12.5344 13.5189ZM13.7924 10.2985C13.4557 10.7263 13.0944 11.0933 12.7218 11.399C12.7184 11.3986 12.715 11.3982 12.7116 11.3978C11.8031 12.1418 10.8277 12.5217 9.97767 12.5315L7.4902 10.044C7.50367 8.84333 8.25525 7.39275 9.72762 6.23343C11.1548 5.1097 13.1889 4.32793 15.6112 4.40916C15.6113 4.41085 15.6114 4.41255 15.6114 4.41424C15.6131 4.4143 15.6148 4.41435 15.6165 4.41441C15.6976 6.83665 14.916 8.871 13.7924 10.2985ZM5.94966 8.99982C6.06557 8.48052 6.26183 7.96648 6.52717 7.4703C5.95657 7.15625 5.3854 7.13167 4.92622 7.32845C4.39639 7.55551 3.7941 8.17267 3.47507 9.4677C4.32364 9.40135 4.86815 9.25769 5.29444 9.14522C5.37288 9.12452 5.44736 9.10487 5.51895 9.08696C5.64614 9.05515 5.79125 9.02067 5.94966 8.99982Z" fill="white"/>
<path d="M12.6173 9.86798C11.9664 10.5189 10.9111 10.5189 10.2603 9.86798C9.60939 9.21711 9.60939 8.16183 10.2603 7.51096C10.9111 6.86008 11.9664 6.86008 12.6173 7.51096C13.2682 8.16183 13.2682 9.21711 12.6173 9.86798Z" fill="white"/>
</g>
</g>
</svg>
